<svg xmlns="http://www.w3.org/2000/svg" width="1680" height="1260" viewBox="0 0 1680 1260">
<defs>
<pattern id="dots" width="34" height="34" patternUnits="userSpaceOnUse"><circle cx="1.4" cy="1.4" r="1.4" fill="#1B2336"/></pattern>
<linearGradient id="glassg" x1="0" y1="0" x2="1" y2="1"><stop offset="0" stop-color="#69C7E8" stop-opacity="0.5"/><stop offset="1" stop-color="#69C7E8" stop-opacity="0.1"/></linearGradient>
</defs>
<rect x="0.0" y="0.0" width="1680.0" height="1260.0" rx="0" ry="0" fill="#0E1320" />
<rect width="1680" height="1260" fill="url(#dots)" opacity="0.55"/>
<text x="56.0" y="72.0" font-family="Inter,'Helvetica Neue',Arial,sans-serif" font-size="44" font-weight="800" fill="#EAEEF6" text-anchor="start">ScreenFlip</text>
<text x="312.0" y="72.0" font-family="Inter,'Helvetica Neue',Arial,sans-serif" font-size="30" font-weight="500" fill="#8A94A8" text-anchor="start">— a teleprompter you can actually use</text>
<text x="56.0" y="110.0" font-family="Inter,'Helvetica Neue',Arial,sans-serif" font-size="19" font-weight="400" fill="#8A94A8" text-anchor="start">Two displays:   LEFT = normal screen     ·     RIGHT = teleprompter (beam-splitter glass + camera)</text>
<text x="56.0" y="138.0" font-family="Inter,'Helvetica Neue',Arial,sans-serif" font-size="19" font-weight="400" fill="#8A94A8" text-anchor="start">How the mirroring and the mouse behave, before and after.</text>
<rect x="1465.0" y="43.0" width="159.0" height="28.0" rx="14" ry="14" fill="#11161F" stroke="#37B97F" stroke-width="1.3" />
<circle cx="1481.0" cy="57.0" r="6.5" fill="#37B97F"/>
<text x="1495.0" y="62.0" font-family="Inter,'Helvetica Neue',Arial,sans-serif" font-size="14.5" font-weight="600" fill="#EAEEF6" text-anchor="start">WITH ScreenFlip</text>
<rect x="1354.8" y="43.0" width="90.2" height="28.0" rx="14" ry="14" fill="#11161F" stroke="#E1554E" stroke-width="1.3" />
<circle cx="1370.8" cy="57.0" r="6.5" fill="#E1554E"/>
<text x="1384.8" y="62.0" font-family="Inter,'Helvetica Neue',Arial,sans-serif" font-size="14.5" font-weight="600" fill="#EAEEF6" text-anchor="start">WITHOUT</text>
<rect x="56.0" y="170.0" width="1568.0" height="560.0" rx="22" ry="22" fill="#181219" stroke="#43232f" stroke-width="1.5" />
<path d="M56 192 Q56 170 78 170 L108 170 L108 730 L78 730 Q56 730 56 708 Z" fill="#E1554E"/>
<text x="83.0" y="450.0" font-family="Inter,Arial,sans-serif" font-size="20" font-weight="800" fill="#0E0B10" text-anchor="middle" transform="rotate(-90 83.0 450.0)" letter-spacing="3.5">BEFORE</text>
<rect x="56.0" y="762.0" width="1568.0" height="396.0" rx="22" ry="22" fill="#101A16" stroke="#1f3b2c" stroke-width="1.5" />
<path d="M56 784 Q56 762 78 762 L108 762 L108 1158 L78 1158 Q56 1158 56 1136 Z" fill="#37B97F"/>
<text x="83.0" y="960.0" font-family="Inter,Arial,sans-serif" font-size="20" font-weight="800" fill="#0E0B10" text-anchor="middle" transform="rotate(-90 83.0 960.0)" letter-spacing="3.5">AFTER</text>
<rect x="138.0" y="360.0" width="218.0" height="132.0" rx="10" ry="10" fill="#2A3346" />
<rect x="145.0" y="367.0" width="204.0" height="118.0" rx="4" ry="4" fill="#0B0F18" />
<clipPath id="clip1"><rect x="145.0" y="367.0" width="204.0" height="118.0" rx="4"/></clipPath>
<g clip-path="url(#clip1)">
<rect x="154.0" y="376.0" width="186.0" height="100.0" rx="5" ry="5" fill="#141B29" />
<rect x="154.0" y="376.0" width="186.0" height="17.0" rx="5" ry="5" fill="#1E2940" />
<circle cx="162.0" cy="384.5" r="3.1" fill="#B5564F"/>
<circle cx="173.0" cy="384.5" r="3.1" fill="#C8A24a"/>
<circle cx="184.0" cy="384.5" r="3.1" fill="#2E7D5B"/>
<line x1="165.0" y1="420.1" x2="329.0" y2="420.1" stroke="#2A364E" stroke-width="4" stroke-linecap="round" opacity="0.7"/>
<line x1="165.0" y1="435.4" x2="289.0" y2="435.4" stroke="#2A364E" stroke-width="4" stroke-linecap="round" opacity="0.7"/>
<line x1="165.0" y1="450.8" x2="329.0" y2="450.8" stroke="#2A364E" stroke-width="4" stroke-linecap="round" opacity="0.7"/>
<line x1="165.0" y1="466.1" x2="289.0" y2="466.1" stroke="#2A364E" stroke-width="4" stroke-linecap="round" opacity="0.7"/>
<g transform="translate(267.4,428.4) scale(1.3,1.3)"><path d="M0 0 L0 17 L4.2 13 L7.1 19.5 L9.6 18.4 L6.8 12.2 L12 12 Z" fill="#FFFFFF" stroke="#0B0F18" stroke-width="1.3" stroke-linejoin="round"/></g>
</g>
<rect x="240.0" y="492.0" width="14" height="13" fill="#2A3346"/>
<rect x="215.0" y="505.0" width="64" height="7" rx="3" fill="#2A3346"/>
<text x="247.0" y="534.0" font-family="Inter,'Helvetica Neue',Arial,sans-serif" font-size="16" font-weight="700" fill="#EAEEF6" text-anchor="middle">Normal display</text>
<text x="247.0" y="554.0" font-family="Inter,'Helvetica Neue',Arial,sans-serif" font-size="13.5" font-weight="500" fill="#37B97F" text-anchor="middle">unaffected · works as usual</text>
<rect x="138.0" y="870.0" width="218.0" height="132.0" rx="10" ry="10" fill="#2A3346" />
<rect x="145.0" y="877.0" width="204.0" height="118.0" rx="4" ry="4" fill="#0B0F18" />
<clipPath id="clip2"><rect x="145.0" y="877.0" width="204.0" height="118.0" rx="4"/></clipPath>
<g clip-path="url(#clip2)">
<rect x="154.0" y="886.0" width="186.0" height="100.0" rx="5" ry="5" fill="#141B29" />
<rect x="154.0" y="886.0" width="186.0" height="17.0" rx="5" ry="5" fill="#1E2940" />
<circle cx="162.0" cy="894.5" r="3.1" fill="#B5564F"/>
<circle cx="173.0" cy="894.5" r="3.1" fill="#C8A24a"/>
<circle cx="184.0" cy="894.5" r="3.1" fill="#2E7D5B"/>
<line x1="165.0" y1="930.1" x2="329.0" y2="930.1" stroke="#2A364E" stroke-width="4" stroke-linecap="round" opacity="0.7"/>
<line x1="165.0" y1="945.4" x2="289.0" y2="945.4" stroke="#2A364E" stroke-width="4" stroke-linecap="round" opacity="0.7"/>
<line x1="165.0" y1="960.8" x2="329.0" y2="960.8" stroke="#2A364E" stroke-width="4" stroke-linecap="round" opacity="0.7"/>
<line x1="165.0" y1="976.1" x2="289.0" y2="976.1" stroke="#2A364E" stroke-width="4" stroke-linecap="round" opacity="0.7"/>
<g transform="translate(267.4,938.4) scale(1.3,1.3)"><path d="M0 0 L0 17 L4.2 13 L7.1 19.5 L9.6 18.4 L6.8 12.2 L12 12 Z" fill="#FFFFFF" stroke="#0B0F18" stroke-width="1.3" stroke-linejoin="round"/></g>
</g>
<rect x="240.0" y="1002.0" width="14" height="13" fill="#2A3346"/>
<rect x="215.0" y="1015.0" width="64" height="7" rx="3" fill="#2A3346"/>
<text x="247.0" y="1044.0" font-family="Inter,'Helvetica Neue',Arial,sans-serif" font-size="16" font-weight="700" fill="#EAEEF6" text-anchor="middle">Normal display</text>
<text x="247.0" y="1064.0" font-family="Inter,'Helvetica Neue',Arial,sans-serif" font-size="13.5" font-weight="500" fill="#37B97F" text-anchor="middle">unaffected · works as usual</text>
<line x1="412.0" y1="206.0" x2="412.0" y2="694.0" stroke="#2A3346" stroke-width="1.4" stroke-linecap="round" stroke-dasharray="2 7" opacity="0.8"/>
<line x1="412.0" y1="798.0" x2="412.0" y2="1122.0" stroke="#2A3346" stroke-width="1.4" stroke-linecap="round" stroke-dasharray="2 7" opacity="0.8"/>
<circle cx="451.0" cy="218.0" r="14.5" fill="none" stroke="#8A94A8" stroke-width="1.6"/>
<text x="451.0" y="223.0" font-family="Inter,'Helvetica Neue',Arial,sans-serif" font-size="16" font-weight="800" fill="#EAEEF6" text-anchor="middle">1</text>
<text x="476.0" y="215.0" font-family="Inter,'Helvetica Neue',Arial,sans-serif" font-size="17" font-weight="700" fill="#EAEEF6" text-anchor="start">No flip</text>
<text x="476.0" y="235.0" font-family="Inter,'Helvetica Neue',Arial,sans-serif" font-size="12.5" font-weight="500" fill="#8A94A8" text-anchor="start">screen left as-is</text>
<rect x="436.0" y="252.0" width="174.0" height="104.0" rx="10" ry="10" fill="#2A3346" />
<rect x="443.0" y="259.0" width="160.0" height="90.0" rx="4" ry="4" fill="#0B0F18" />
<clipPath id="clip3"><rect x="443.0" y="259.0" width="160.0" height="90.0" rx="4"/></clipPath>
<g clip-path="url(#clip3)">
<line x1="457.0" y1="286.0" x2="589.0" y2="286.0" stroke="#27324a" stroke-width="4" stroke-linecap="round" opacity="0.55"/>
<line x1="457.0" y1="297.7" x2="589.0" y2="297.7" stroke="#27324a" stroke-width="4" stroke-linecap="round" opacity="0.55"/>
<line x1="457.0" y1="329.2" x2="563.0" y2="329.2" stroke="#27324a" stroke-width="4" stroke-linecap="round" opacity="0.55"/>
<line x1="457.0" y1="340.0" x2="563.0" y2="340.0" stroke="#27324a" stroke-width="4" stroke-linecap="round" opacity="0.55"/>
<text x="523.0" y="283.0" font-family="'JetBrains Mono','SF Mono',Menlo,monospace" font-size="20" font-weight="800" fill="#E7ECF5" text-anchor="middle">READ THIS</text>
</g>
<rect x="516.0" y="356.0" width="14" height="13" fill="#2A3346"/>
<rect x="491.0" y="369.0" width="64" height="7" rx="3" fill="#2A3346"/>
<text x="523.0" y="396.0" font-family="Inter,'Helvetica Neue',Arial,sans-serif" font-size="13.5" font-weight="500" fill="#8A94A8" text-anchor="middle">shows normal text</text>
<polygon points="648.0,335.6 721.2,262.4 729.2,262.4 656.0,335.6" fill="url(#glassg)" stroke="#69C7E8" stroke-width="1.4"/>
<line x1="624.0" y1="299.0" x2="682.6" y2="299.0" stroke="#5AA9E6" stroke-width="2.6" stroke-linecap="round"/>
<line x1="682.6" y1="299.0" x2="674.8" y2="303.5" stroke="#5AA9E6" stroke-width="2.6" stroke-linecap="round"/>
<line x1="682.6" y1="299.0" x2="674.8" y2="294.5" stroke="#5AA9E6" stroke-width="2.6" stroke-linecap="round"/>
<line x1="688.6" y1="293.0" x2="688.6" y2="238.0" stroke="#5AA9E6" stroke-width="2.6" stroke-linecap="round"/>
<line x1="688.6" y1="238.0" x2="693.1" y2="245.8" stroke="#5AA9E6" stroke-width="2.6" stroke-linecap="round"/>
<line x1="688.6" y1="238.0" x2="684.1" y2="245.8" stroke="#5AA9E6" stroke-width="2.6" stroke-linecap="round"/>
<rect x="670.5" y="205.7" width="36.1" height="24.7" rx="3.8" ry="3.8" fill="#0E1622" stroke="#8A94A8" stroke-width="1.6" />
<circle cx="688.6" cy="218.0" r="7.6" fill="none" stroke="#8A94A8" stroke-width="1.6"/>
<circle cx="688.6" cy="218.0" r="3.2" fill="#8A94A8"/>
<rect x="675.3" y="200.9" width="11.4" height="4.8" rx="1.4249999999999998" ry="1.4249999999999998" fill="#0E1622" stroke="#8A94A8" stroke-width="1.4" />
<text x="688.6" y="198.0" font-family="Inter,'Helvetica Neue',Arial,sans-serif" font-size="12" font-weight="500" fill="#8A94A8" text-anchor="middle">camera</text>
<text x="688.6" y="373.0" font-family="Inter,'Helvetica Neue',Arial,sans-serif" font-size="12.5" font-weight="500" fill="#69C7E8" text-anchor="middle">beam-splitter 45°</text>
<rect x="770.0" y="238.0" width="188.0" height="122.0" rx="9" ry="9" fill="#0C1119" stroke="#E1554E" stroke-width="1.6" />
<text x="864.0" y="261.0" font-family="Inter,'Helvetica Neue',Arial,sans-serif" font-size="11.5" font-weight="700" fill="#8A94A8" text-anchor="middle" letter-spacing="1.2">WHAT THE CAMERA SEES</text>
<text x="864.0" y="317.0" font-family="'JetBrains Mono','SF Mono',Menlo,monospace" font-size="25" font-weight="800" fill="#EAEEF6" text-anchor="middle" transform="translate(1728.0,0) scale(-1,1)">READ THIS</text>
<text x="864.0" y="345.0" font-family="Inter,'Helvetica Neue',Arial,sans-serif" font-size="14" font-weight="700" fill="#E1554E" text-anchor="middle">reads backwards</text>
<text x="998.0" y="244.0" font-family="Inter,'Helvetica Neue',Arial,sans-serif" font-size="13.5" font-weight="500" fill="#8A94A8" text-anchor="start">you move the mouse</text>
<line x1="1004.0" y1="262.0" x2="1060.0" y2="262.0" stroke="#EAEEF6" stroke-width="3" stroke-linecap="round"/>
<line x1="1060.0" y1="262.0" x2="1052.2" y2="266.5" stroke="#EAEEF6" stroke-width="3" stroke-linecap="round"/>
<line x1="1060.0" y1="262.0" x2="1052.2" y2="257.5" stroke="#EAEEF6" stroke-width="3" stroke-linecap="round"/>
<text x="1072.0" y="267.0" font-family="Inter,'Helvetica Neue',Arial,sans-serif" font-size="14" font-weight="700" fill="#EAEEF6" text-anchor="start">right</text>
<text x="998.0" y="298.0" font-family="Inter,'Helvetica Neue',Arial,sans-serif" font-size="13.5" font-weight="500" fill="#8A94A8" text-anchor="start">on-screen cursor goes</text>
<line x1="1160.0" y1="293.0" x2="1216.0" y2="293.0" stroke="#37B97F" stroke-width="3" stroke-linecap="round"/>
<line x1="1216.0" y1="293.0" x2="1208.2" y2="297.5" stroke="#37B97F" stroke-width="3" stroke-linecap="round"/>
<line x1="1216.0" y1="293.0" x2="1208.2" y2="288.5" stroke="#37B97F" stroke-width="3" stroke-linecap="round"/>
<text x="1228.0" y="298.0" font-family="Inter,'Helvetica Neue',Arial,sans-serif" font-size="14" font-weight="800" fill="#37B97F" text-anchor="start">right</text>
<text x="998.0" y="342.0" font-family="Inter,'Helvetica Neue',Arial,sans-serif" font-size="13.5" font-weight="500" fill="#8A94A8" text-anchor="start">your click</text>
<circle cx="1094.0" cy="338.0" r="15" fill="none" stroke="#37B97F" stroke-width="2"/>
<circle cx="1094.0" cy="338.0" r="7.5" fill="none" stroke="#37B97F" stroke-width="2"/>
<circle cx="1094.0" cy="338.0" r="3" fill="#37B97F"/>
<g transform="translate(1095.0,339.0) scale(1.15,1.15)"><path d="M0 0 L0 17 L4.2 13 L7.1 19.5 L9.6 18.4 L6.8 12.2 L12 12 Z" fill="#FFFFFF" stroke="#0B0F18" stroke-width="1.3" stroke-linejoin="round"/></g>
<text x="1120.0" y="343.0" font-family="Inter,'Helvetica Neue',Arial,sans-serif" font-size="14" font-weight="800" fill="#37B97F" text-anchor="start">lands on target</text>
<rect x="1384.0" y="244.0" width="214.0" height="32.0" rx="16" ry="16" fill="#251417" stroke="#E1554E" stroke-width="1.4" />
<circle cx="1403.0" cy="260.0" r="9.5" fill="#E1554E"/>
<path d="M1399.4 256.4 L1406.6 263.6 M1406.6 256.4 L1399.4 263.6" stroke="#140B0B" stroke-width="2.3" stroke-linecap="round"/>
<text x="1420.0" y="265.0" font-family="Inter,'Helvetica Neue',Arial,sans-serif" font-size="14.5" font-weight="600" fill="#EAEEF6" text-anchor="start">Reflection: backwards</text>
<rect x="1384.0" y="288.0" width="214.0" height="32.0" rx="16" ry="16" fill="#13241C" stroke="#37B97F" stroke-width="1.4" />
<circle cx="1403.0" cy="304.0" r="9.5" fill="#37B97F"/>
<path d="M1398.8 304.0 L1402.0 307.2 L1407.8 300.4" stroke="#0B140F" stroke-width="2.3" fill="none" stroke-linecap="round" stroke-linejoin="round"/>
<text x="1420.0" y="309.0" font-family="Inter,'Helvetica Neue',Arial,sans-serif" font-size="14.5" font-weight="600" fill="#EAEEF6" text-anchor="start">Cursor/clicks: OK</text>
<circle cx="451.0" cy="450.0" r="14.5" fill="none" stroke="#8A94A8" stroke-width="1.6"/>
<text x="451.0" y="455.0" font-family="Inter,'Helvetica Neue',Arial,sans-serif" font-size="16" font-weight="800" fill="#EAEEF6" text-anchor="middle">2</text>
<text x="476.0" y="447.0" font-family="Inter,'Helvetica Neue',Arial,sans-serif" font-size="17" font-weight="700" fill="#EAEEF6" text-anchor="start">Naive flip tool</text>
<text x="476.0" y="467.0" font-family="Inter,'Helvetica Neue',Arial,sans-serif" font-size="12.5" font-weight="500" fill="#8A94A8" text-anchor="start">pixels flipped, input is not</text>
<rect x="436.0" y="484.0" width="174.0" height="104.0" rx="10" ry="10" fill="#2A3346" />
<rect x="443.0" y="491.0" width="160.0" height="90.0" rx="4" ry="4" fill="#0B0F18" />
<clipPath id="clip4"><rect x="443.0" y="491.0" width="160.0" height="90.0" rx="4"/></clipPath>
<g clip-path="url(#clip4)">
<line x1="457.0" y1="518.0" x2="589.0" y2="518.0" stroke="#27324a" stroke-width="4" stroke-linecap="round" opacity="0.55"/>
<line x1="457.0" y1="529.7" x2="589.0" y2="529.7" stroke="#27324a" stroke-width="4" stroke-linecap="round" opacity="0.55"/>
<line x1="457.0" y1="561.2" x2="563.0" y2="561.2" stroke="#27324a" stroke-width="4" stroke-linecap="round" opacity="0.55"/>
<line x1="457.0" y1="572.0" x2="563.0" y2="572.0" stroke="#27324a" stroke-width="4" stroke-linecap="round" opacity="0.55"/>
<text x="523.0" y="515.0" font-family="'JetBrains Mono','SF Mono',Menlo,monospace" font-size="20" font-weight="800" fill="#E7ECF5" text-anchor="middle" transform="translate(1046.0,0) scale(-1,1)">READ THIS</text>
</g>
<rect x="516.0" y="588.0" width="14" height="13" fill="#2A3346"/>
<rect x="491.0" y="601.0" width="64" height="7" rx="3" fill="#2A3346"/>
<text x="523.0" y="628.0" font-family="Inter,'Helvetica Neue',Arial,sans-serif" font-size="13.5" font-weight="500" fill="#8A94A8" text-anchor="middle">shows flipped text</text>
<polygon points="648.0,567.6 721.2,494.4 729.2,494.4 656.0,567.6" fill="url(#glassg)" stroke="#69C7E8" stroke-width="1.4"/>
<line x1="624.0" y1="531.0" x2="682.6" y2="531.0" stroke="#5AA9E6" stroke-width="2.6" stroke-linecap="round"/>
<line x1="682.6" y1="531.0" x2="674.8" y2="535.5" stroke="#5AA9E6" stroke-width="2.6" stroke-linecap="round"/>
<line x1="682.6" y1="531.0" x2="674.8" y2="526.5" stroke="#5AA9E6" stroke-width="2.6" stroke-linecap="round"/>
<line x1="688.6" y1="525.0" x2="688.6" y2="470.0" stroke="#5AA9E6" stroke-width="2.6" stroke-linecap="round"/>
<line x1="688.6" y1="470.0" x2="693.1" y2="477.8" stroke="#5AA9E6" stroke-width="2.6" stroke-linecap="round"/>
<line x1="688.6" y1="470.0" x2="684.1" y2="477.8" stroke="#5AA9E6" stroke-width="2.6" stroke-linecap="round"/>
<rect x="670.5" y="437.6" width="36.1" height="24.7" rx="3.8" ry="3.8" fill="#0E1622" stroke="#8A94A8" stroke-width="1.6" />
<circle cx="688.6" cy="450.0" r="7.6" fill="none" stroke="#8A94A8" stroke-width="1.6"/>
<circle cx="688.6" cy="450.0" r="3.2" fill="#8A94A8"/>
<rect x="675.3" y="432.9" width="11.4" height="4.8" rx="1.4249999999999998" ry="1.4249999999999998" fill="#0E1622" stroke="#8A94A8" stroke-width="1.4" />
<text x="688.6" y="430.0" font-family="Inter,'Helvetica Neue',Arial,sans-serif" font-size="12" font-weight="500" fill="#8A94A8" text-anchor="middle">camera</text>
<text x="688.6" y="605.0" font-family="Inter,'Helvetica Neue',Arial,sans-serif" font-size="12.5" font-weight="500" fill="#69C7E8" text-anchor="middle">beam-splitter 45°</text>
<rect x="770.0" y="470.0" width="188.0" height="122.0" rx="9" ry="9" fill="#0C1119" stroke="#37B97F" stroke-width="1.6" />
<text x="864.0" y="493.0" font-family="Inter,'Helvetica Neue',Arial,sans-serif" font-size="11.5" font-weight="700" fill="#8A94A8" text-anchor="middle" letter-spacing="1.2">WHAT THE CAMERA SEES</text>
<text x="864.0" y="549.0" font-family="'JetBrains Mono','SF Mono',Menlo,monospace" font-size="25" font-weight="800" fill="#EAEEF6" text-anchor="middle">READ THIS</text>
<text x="864.0" y="577.0" font-family="Inter,'Helvetica Neue',Arial,sans-serif" font-size="14" font-weight="700" fill="#37B97F" text-anchor="middle">reads correctly</text>
<text x="998.0" y="476.0" font-family="Inter,'Helvetica Neue',Arial,sans-serif" font-size="13.5" font-weight="500" fill="#8A94A8" text-anchor="start">you move the mouse</text>
<line x1="1004.0" y1="494.0" x2="1060.0" y2="494.0" stroke="#EAEEF6" stroke-width="3" stroke-linecap="round"/>
<line x1="1060.0" y1="494.0" x2="1052.2" y2="498.5" stroke="#EAEEF6" stroke-width="3" stroke-linecap="round"/>
<line x1="1060.0" y1="494.0" x2="1052.2" y2="489.5" stroke="#EAEEF6" stroke-width="3" stroke-linecap="round"/>
<text x="1072.0" y="499.0" font-family="Inter,'Helvetica Neue',Arial,sans-serif" font-size="14" font-weight="700" fill="#EAEEF6" text-anchor="start">right</text>
<text x="998.0" y="530.0" font-family="Inter,'Helvetica Neue',Arial,sans-serif" font-size="13.5" font-weight="500" fill="#8A94A8" text-anchor="start">on-screen cursor goes</text>
<line x1="1216.0" y1="525.0" x2="1160.0" y2="525.0" stroke="#E1554E" stroke-width="3" stroke-linecap="round"/>
<line x1="1160.0" y1="525.0" x2="1167.8" y2="520.5" stroke="#E1554E" stroke-width="3" stroke-linecap="round"/>
<line x1="1160.0" y1="525.0" x2="1167.8" y2="529.5" stroke="#E1554E" stroke-width="3" stroke-linecap="round"/>
<text x="1228.0" y="530.0" font-family="Inter,'Helvetica Neue',Arial,sans-serif" font-size="14" font-weight="800" fill="#E1554E" text-anchor="start">left!</text>
<text x="998.0" y="574.0" font-family="Inter,'Helvetica Neue',Arial,sans-serif" font-size="13.5" font-weight="500" fill="#8A94A8" text-anchor="start">your click</text>
<circle cx="1094.0" cy="570.0" r="15" fill="none" stroke="#E1554E" stroke-width="2"/>
<circle cx="1094.0" cy="570.0" r="7.5" fill="none" stroke="#E1554E" stroke-width="2"/>
<g transform="translate(1052.0,564.0) scale(1.15,1.15)"><path d="M0 0 L0 17 L4.2 13 L7.1 19.5 L9.6 18.4 L6.8 12.2 L12 12 Z" fill="#FFFFFF" stroke="#0B0F18" stroke-width="1.3" stroke-linejoin="round"/></g>
<path d="M1086.0 562.0 L1102.0 578.0 M1102.0 562.0 L1086.0 578.0" stroke="#E1554E" stroke-width="2.6" stroke-linecap="round"/>
<text x="1120.0" y="575.0" font-family="Inter,'Helvetica Neue',Arial,sans-serif" font-size="14" font-weight="800" fill="#E1554E" text-anchor="start">misses target</text>
<rect x="1384.0" y="476.0" width="214.0" height="32.0" rx="16" ry="16" fill="#13241C" stroke="#37B97F" stroke-width="1.4" />
<circle cx="1403.0" cy="492.0" r="9.5" fill="#37B97F"/>
<path d="M1398.8 492.0 L1402.0 495.2 L1407.8 488.4" stroke="#0B140F" stroke-width="2.3" fill="none" stroke-linecap="round" stroke-linejoin="round"/>
<text x="1420.0" y="497.0" font-family="Inter,'Helvetica Neue',Arial,sans-serif" font-size="14.5" font-weight="600" fill="#EAEEF6" text-anchor="start">Reflection: OK</text>
<rect x="1384.0" y="520.0" width="214.0" height="32.0" rx="16" ry="16" fill="#251417" stroke="#E1554E" stroke-width="1.4" />
<circle cx="1403.0" cy="536.0" r="9.5" fill="#E1554E"/>
<path d="M1399.4 532.4 L1406.6 539.6 M1406.6 532.4 L1399.4 539.6" stroke="#140B0B" stroke-width="2.3" stroke-linecap="round"/>
<text x="1420.0" y="541.0" font-family="Inter,'Helvetica Neue',Arial,sans-serif" font-size="14.5" font-weight="600" fill="#EAEEF6" text-anchor="start">Cursor/clicks: broken</text>
<text x="436.0" y="808.0" font-family="Inter,'Helvetica Neue',Arial,sans-serif" font-size="18" font-weight="700" fill="#EAEEF6" text-anchor="start">ScreenFlip on the teleprompter monitor</text>
<text x="436.0" y="830.0" font-family="Inter,'Helvetica Neue',Arial,sans-serif" font-size="13" font-weight="500" fill="#8A94A8" text-anchor="start">the one display ScreenFlip flips — everything else is untouched</text>
<rect x="436.0" y="890.0" width="216.0" height="140.0" rx="10" ry="10" fill="#2A3346" />
<rect x="443.0" y="897.0" width="202.0" height="126.0" rx="4" ry="4" fill="#0B0F18" />
<clipPath id="clip5"><rect x="443.0" y="897.0" width="202.0" height="126.0" rx="4"/></clipPath>
<g clip-path="url(#clip5)">
<line x1="457.0" y1="934.8" x2="631.0" y2="934.8" stroke="#27324a" stroke-width="4" stroke-linecap="round" opacity="0.55"/>
<line x1="457.0" y1="951.2" x2="631.0" y2="951.2" stroke="#27324a" stroke-width="4" stroke-linecap="round" opacity="0.55"/>
<line x1="457.0" y1="995.3" x2="605.0" y2="995.3" stroke="#27324a" stroke-width="4" stroke-linecap="round" opacity="0.55"/>
<line x1="457.0" y1="1010.4" x2="605.0" y2="1010.4" stroke="#27324a" stroke-width="4" stroke-linecap="round" opacity="0.55"/>
<text x="544.0" y="928.2" font-family="'JetBrains Mono','SF Mono',Menlo,monospace" font-size="20" font-weight="800" fill="#E7ECF5" text-anchor="middle" transform="translate(1088.0,0) scale(-1,1)">READ THIS</text>
<g transform="translate(560.2,967.6) scale(-1.3,1.3)"><path d="M0 0 L0 17 L4.2 13 L7.1 19.5 L9.6 18.4 L6.8 12.2 L12 12 Z" fill="#FFFFFF" stroke="#0B0F18" stroke-width="1.3" stroke-linejoin="round"/></g>
</g>
<rect x="537.0" y="1030.0" width="14" height="13" fill="#2A3346"/>
<rect x="512.0" y="1043.0" width="64" height="7" rx="3" fill="#2A3346"/>
<text x="544.0" y="1070.0" font-family="Inter,'Helvetica Neue',Arial,sans-serif" font-size="13.5" font-weight="500" fill="#37B97F" text-anchor="middle">flipped render + proxy cursor</text>
<polygon points="700.0,1002.8 785.6,917.2 793.6,917.2 708.0,1002.8" fill="url(#glassg)" stroke="#69C7E8" stroke-width="1.4"/>
<line x1="676.0" y1="960.0" x2="740.8" y2="960.0" stroke="#5AA9E6" stroke-width="2.6" stroke-linecap="round"/>
<line x1="740.8" y1="960.0" x2="733.0" y2="964.5" stroke="#5AA9E6" stroke-width="2.6" stroke-linecap="round"/>
<line x1="740.8" y1="960.0" x2="733.0" y2="955.5" stroke="#5AA9E6" stroke-width="2.6" stroke-linecap="round"/>
<line x1="746.8" y1="954.0" x2="746.8" y2="889.0" stroke="#5AA9E6" stroke-width="2.6" stroke-linecap="round"/>
<line x1="746.8" y1="889.0" x2="751.3" y2="896.8" stroke="#5AA9E6" stroke-width="2.6" stroke-linecap="round"/>
<line x1="746.8" y1="889.0" x2="742.3" y2="896.8" stroke="#5AA9E6" stroke-width="2.6" stroke-linecap="round"/>
<rect x="728.7" y="856.6" width="36.1" height="24.7" rx="3.8" ry="3.8" fill="#0E1622" stroke="#8A94A8" stroke-width="1.6" />
<circle cx="746.8" cy="869.0" r="7.6" fill="none" stroke="#8A94A8" stroke-width="1.6"/>
<circle cx="746.8" cy="869.0" r="3.2" fill="#8A94A8"/>
<rect x="733.5" y="851.9" width="11.4" height="4.8" rx="1.4249999999999998" ry="1.4249999999999998" fill="#0E1622" stroke="#8A94A8" stroke-width="1.4" />
<text x="746.8" y="849.0" font-family="Inter,'Helvetica Neue',Arial,sans-serif" font-size="12" font-weight="500" fill="#8A94A8" text-anchor="middle">camera</text>
<text x="746.8" y="1044.0" font-family="Inter,'Helvetica Neue',Arial,sans-serif" font-size="12.5" font-weight="500" fill="#69C7E8" text-anchor="middle">beam-splitter 45°</text>
<rect x="836.0" y="885.0" width="226.0" height="150.0" rx="9" ry="9" fill="#0C1119" stroke="#37B97F" stroke-width="1.6" />
<text x="949.0" y="908.0" font-family="Inter,'Helvetica Neue',Arial,sans-serif" font-size="11.5" font-weight="700" fill="#8A94A8" text-anchor="middle" letter-spacing="1.2">WHAT THE CAMERA SEES</text>
<text x="949.0" y="978.0" font-family="'JetBrains Mono','SF Mono',Menlo,monospace" font-size="25" font-weight="800" fill="#EAEEF6" text-anchor="middle">READ THIS</text>
<text x="949.0" y="1020.0" font-family="Inter,'Helvetica Neue',Arial,sans-serif" font-size="14" font-weight="700" fill="#37B97F" text-anchor="middle">reads correctly</text>
<text x="1106.0" y="916.0" font-family="Inter,'Helvetica Neue',Arial,sans-serif" font-size="13.5" font-weight="500" fill="#8A94A8" text-anchor="start">you move the mouse</text>
<line x1="1112.0" y1="934.0" x2="1168.0" y2="934.0" stroke="#EAEEF6" stroke-width="3" stroke-linecap="round"/>
<line x1="1168.0" y1="934.0" x2="1160.2" y2="938.5" stroke="#EAEEF6" stroke-width="3" stroke-linecap="round"/>
<line x1="1168.0" y1="934.0" x2="1160.2" y2="929.5" stroke="#EAEEF6" stroke-width="3" stroke-linecap="round"/>
<text x="1180.0" y="939.0" font-family="Inter,'Helvetica Neue',Arial,sans-serif" font-size="14" font-weight="700" fill="#EAEEF6" text-anchor="start">right</text>
<text x="1106.0" y="970.0" font-family="Inter,'Helvetica Neue',Arial,sans-serif" font-size="13.5" font-weight="500" fill="#8A94A8" text-anchor="start">on-screen cursor goes</text>
<line x1="1268.0" y1="965.0" x2="1324.0" y2="965.0" stroke="#37B97F" stroke-width="3" stroke-linecap="round"/>
<line x1="1324.0" y1="965.0" x2="1316.2" y2="969.5" stroke="#37B97F" stroke-width="3" stroke-linecap="round"/>
<line x1="1324.0" y1="965.0" x2="1316.2" y2="960.5" stroke="#37B97F" stroke-width="3" stroke-linecap="round"/>
<text x="1336.0" y="970.0" font-family="Inter,'Helvetica Neue',Arial,sans-serif" font-size="14" font-weight="800" fill="#37B97F" text-anchor="start">right</text>
<text x="1106.0" y="1014.0" font-family="Inter,'Helvetica Neue',Arial,sans-serif" font-size="13.5" font-weight="500" fill="#8A94A8" text-anchor="start">your click</text>
<circle cx="1202.0" cy="1010.0" r="15" fill="none" stroke="#37B97F" stroke-width="2"/>
<circle cx="1202.0" cy="1010.0" r="7.5" fill="none" stroke="#37B97F" stroke-width="2"/>
<circle cx="1202.0" cy="1010.0" r="3" fill="#37B97F"/>
<g transform="translate(1203.0,1011.0) scale(1.15,1.15)"><path d="M0 0 L0 17 L4.2 13 L7.1 19.5 L9.6 18.4 L6.8 12.2 L12 12 Z" fill="#FFFFFF" stroke="#0B0F18" stroke-width="1.3" stroke-linejoin="round"/></g>
<text x="1228.0" y="1015.0" font-family="Inter,'Helvetica Neue',Arial,sans-serif" font-size="14" font-weight="800" fill="#37B97F" text-anchor="start">lands on target</text>
<rect x="1384.0" y="914.0" width="214.0" height="32.0" rx="16" ry="16" fill="#13241C" stroke="#37B97F" stroke-width="1.4" />
<circle cx="1403.0" cy="930.0" r="9.5" fill="#37B97F"/>
<path d="M1398.8 930.0 L1402.0 933.2 L1407.8 926.4" stroke="#0B140F" stroke-width="2.3" fill="none" stroke-linecap="round" stroke-linejoin="round"/>
<text x="1420.0" y="935.0" font-family="Inter,'Helvetica Neue',Arial,sans-serif" font-size="14.5" font-weight="600" fill="#EAEEF6" text-anchor="start">Reflection: OK</text>
<rect x="1384.0" y="960.0" width="214.0" height="32.0" rx="16" ry="16" fill="#13241C" stroke="#37B97F" stroke-width="1.4" />
<circle cx="1403.0" cy="976.0" r="9.5" fill="#37B97F"/>
<path d="M1398.8 976.0 L1402.0 979.2 L1407.8 972.4" stroke="#0B140F" stroke-width="2.3" fill="none" stroke-linecap="round" stroke-linejoin="round"/>
<text x="1420.0" y="981.0" font-family="Inter,'Helvetica Neue',Arial,sans-serif" font-size="14.5" font-weight="600" fill="#EAEEF6" text-anchor="start">Cursor/clicks: OK</text>
<text x="436.0" y="1084.0" font-family="Inter,'Helvetica Neue',Arial,sans-serif" font-size="13" font-weight="500" fill="#8A94A8" text-anchor="start">How:  ScreenFlip captures a headless virtual workspace and re-renders it horizontally flipped with ScreenCaptureKit.</text>
<text x="436.0" y="1106.0" font-family="Inter,'Helvetica Neue',Arial,sans-serif" font-size="13" font-weight="500" fill="#8A94A8" text-anchor="start">The cursor lives natively on that workspace, so clicks, drags and typing just work; a proxy cursor is drawn at the mirrored spot.</text>
<text x="436.0" y="1128.0" font-family="Inter,'Helvetica Neue',Arial,sans-serif" font-size="13" font-weight="500" fill="#8A94A8" text-anchor="start">No mouse or keyboard input is ever intercepted, and there is no low-level framebuffer flip.</text>
<rect x="722.4" y="670.0" width="591.2" height="40.0" rx="20" ry="20" fill="#251417" stroke="#E1554E" stroke-width="1.6" />
<circle cx="748.4" cy="690.0" r="11.5" fill="#E1554E"/>
<path d="M743.9 685.5 L752.9 694.5 M752.9 685.5 L743.9 694.5" stroke="#140B0B" stroke-width="2.7" stroke-linecap="round"/>
<text x="1032.0" y="695.0" font-family="Inter,'Helvetica Neue',Arial,sans-serif" font-size="16.5" font-weight="700" fill="#EAEEF6" text-anchor="middle">Correct reflection  OR  a usable cursor — never both</text>
</svg>